<?xml version="1.0" encoding="UTF-8" standalone="no"?>
<!DOCTYPE svg PUBLIC "-//W3C//DTD SVG 1.1//EN"
 "http://www.w3.org/Graphics/SVG/1.1/DTD/svg11.dtd">
<!-- Generated by graphviz version 2.43.0 (0)
 -->
<!-- Title: board Pages: 1 -->
<svg width="484pt" height="530pt"
 viewBox="0.00 0.00 483.50 530.00" xmlns="http://www.w3.org/2000/svg" xmlns:xlink="http://www.w3.org/1999/xlink">
<g id="graph0" class="graph" transform="scale(1 1) rotate(0) translate(4 526)">
<title>board</title>
<polygon fill="white" stroke="transparent" points="-4,4 -4,-526 479.5,-526 479.5,4 -4,4"/>
<!-- n00000001 -->
<g id="node1" class="node">
<title>n00000001</title>
<path fill="green" stroke="black" d="M20.5,-316.5C20.5,-316.5 133.5,-316.5 133.5,-316.5 139.5,-316.5 145.5,-322.5 145.5,-328.5 145.5,-328.5 145.5,-388.5 145.5,-388.5 145.5,-394.5 139.5,-400.5 133.5,-400.5 133.5,-400.5 20.5,-400.5 20.5,-400.5 14.5,-400.5 8.5,-394.5 8.5,-388.5 8.5,-388.5 8.5,-328.5 8.5,-328.5 8.5,-322.5 14.5,-316.5 20.5,-316.5"/>
<text text-anchor="middle" x="77" y="-385.3" font-family="Times,serif" font-size="14.00"> </text>
<polyline fill="none" stroke="black" points="8.5,-377.5 145.5,-377.5 "/>
<text text-anchor="middle" x="77" y="-362.3" font-family="Times,serif" font-size="14.00">mali&#45;c55 tpg</text>
<text text-anchor="middle" x="77" y="-347.3" font-family="Times,serif" font-size="14.00">/dev/v4l&#45;subdev0</text>
<polyline fill="none" stroke="black" points="8.5,-339.5 145.5,-339.5 "/>
<text text-anchor="middle" x="77" y="-324.3" font-family="Times,serif" font-size="14.00">0</text>
</g>
<!-- n00000003 -->
<g id="node2" class="node">
<title>n00000003</title>
<path fill="green" stroke="black" d="M210.5,-195.5C210.5,-195.5 323.5,-195.5 323.5,-195.5 329.5,-195.5 335.5,-201.5 335.5,-207.5 335.5,-207.5 335.5,-267.5 335.5,-267.5 335.5,-273.5 329.5,-279.5 323.5,-279.5 323.5,-279.5 210.5,-279.5 210.5,-279.5 204.5,-279.5 198.5,-273.5 198.5,-267.5 198.5,-267.5 198.5,-207.5 198.5,-207.5 198.5,-201.5 204.5,-195.5 210.5,-195.5"/>
<text text-anchor="middle" x="232.5" y="-264.3" font-family="Times,serif" font-size="14.00">0</text>
<polyline fill="none" stroke="black" points="266.5,-256.5 266.5,-279.5 "/>
<text text-anchor="middle" x="301" y="-264.3" font-family="Times,serif" font-size="14.00">4</text>
<polyline fill="none" stroke="black" points="198.5,-256.5 335.5,-256.5 "/>
<text text-anchor="middle" x="267" y="-241.3" font-family="Times,serif" font-size="14.00">mali&#45;c55 isp</text>
<text text-anchor="middle" x="267" y="-226.3" font-family="Times,serif" font-size="14.00">/dev/v4l&#45;subdev1</text>
<polyline fill="none" stroke="black" points="198.5,-218.5 335.5,-218.5 "/>
<text text-anchor="middle" x="221" y="-203.3" font-family="Times,serif" font-size="14.00">1</text>
<polyline fill="none" stroke="black" points="243.5,-195.5 243.5,-218.5 "/>
<text text-anchor="middle" x="266.5" y="-203.3" font-family="Times,serif" font-size="14.00">2</text>
<polyline fill="none" stroke="black" points="289.5,-195.5 289.5,-218.5 "/>
<text text-anchor="middle" x="312.5" y="-203.3" font-family="Times,serif" font-size="14.00">3</text>
</g>
<!-- n00000001&#45;&gt;n00000003 -->
<g id="edge1" class="edge">
<title>n00000001:port0&#45;&gt;n00000003:port0</title>
<path fill="none" stroke="black" stroke-dasharray="5,2" d="M147,-327.5C153.23,-327.5 151.15,-320.9 155,-316 169.96,-296.96 169.41,-275.56 186.85,-269.92"/>
<polygon fill="black" stroke="black" points="187.58,-273.36 197,-268.5 186.61,-266.42 187.58,-273.36"/>
</g>
<!-- n00000009 -->
<g id="node3" class="node">
<title>n00000009</title>
<path fill="green" stroke="black" d="M182,-74.5C182,-74.5 306,-74.5 306,-74.5 312,-74.5 318,-80.5 318,-86.5 318,-86.5 318,-146.5 318,-146.5 318,-152.5 312,-158.5 306,-158.5 306,-158.5 182,-158.5 182,-158.5 176,-158.5 170,-152.5 170,-146.5 170,-146.5 170,-86.5 170,-86.5 170,-80.5 176,-74.5 182,-74.5"/>
<text text-anchor="middle" x="207" y="-143.3" font-family="Times,serif" font-size="14.00">0</text>
<polyline fill="none" stroke="black" points="244,-135.5 244,-158.5 "/>
<text text-anchor="middle" x="281" y="-143.3" font-family="Times,serif" font-size="14.00">2</text>
<polyline fill="none" stroke="black" points="170,-135.5 318,-135.5 "/>
<text text-anchor="middle" x="244" y="-120.3" font-family="Times,serif" font-size="14.00">mali&#45;c55 resizer fr</text>
<text text-anchor="middle" x="244" y="-105.3" font-family="Times,serif" font-size="14.00">/dev/v4l&#45;subdev2</text>
<polyline fill="none" stroke="black" points="170,-97.5 318,-97.5 "/>
<text text-anchor="middle" x="244" y="-82.3" font-family="Times,serif" font-size="14.00">1</text>
</g>
<!-- n00000003&#45;&gt;n00000009 -->
<g id="edge2" class="edge">
<title>n00000003:port1&#45;&gt;n00000009:port0</title>
<path fill="none" stroke="black" stroke-width="2" d="M221,-195C221,-181.86 212.79,-177.8 208.95,-168.92"/>
<polygon fill="black" stroke="black" stroke-width="2" points="212.36,-168.14 207,-159 205.49,-169.49 212.36,-168.14"/>
</g>
<!-- n00000003&#45;&gt;n00000009 -->
<g id="edge3" class="edge">
<title>n00000003:port2&#45;&gt;n00000009:port2</title>
<path fill="none" stroke="black" stroke-width="2" d="M266,-195C266,-181.73 274.79,-177.84 278.91,-168.96"/>
<polygon fill="black" stroke="black" stroke-width="2" points="282.38,-169.51 281,-159 275.53,-168.07 282.38,-169.51"/>
</g>
<!-- n0000000d -->
<g id="node4" class="node">
<title>n0000000d</title>
<path fill="green" stroke="black" d="M12,-74.5C12,-74.5 140,-74.5 140,-74.5 146,-74.5 152,-80.5 152,-86.5 152,-86.5 152,-146.5 152,-146.5 152,-152.5 146,-158.5 140,-158.5 140,-158.5 12,-158.5 12,-158.5 6,-158.5 0,-152.5 0,-146.5 0,-146.5 0,-86.5 0,-86.5 0,-80.5 6,-74.5 12,-74.5"/>
<text text-anchor="middle" x="76" y="-143.3" font-family="Times,serif" font-size="14.00">0</text>
<polyline fill="none" stroke="black" points="0,-135.5 152,-135.5 "/>
<text text-anchor="middle" x="76" y="-120.3" font-family="Times,serif" font-size="14.00">mali&#45;c55 resizer ds</text>
<text text-anchor="middle" x="76" y="-105.3" font-family="Times,serif" font-size="14.00">/dev/v4l&#45;subdev3</text>
<polyline fill="none" stroke="black" points="0,-97.5 152,-97.5 "/>
<text text-anchor="middle" x="76" y="-82.3" font-family="Times,serif" font-size="14.00">1</text>
</g>
<!-- n00000003&#45;&gt;n0000000d -->
<g id="edge4" class="edge">
<title>n00000003:port1&#45;&gt;n0000000d:port0</title>
<path fill="none" stroke="black" stroke-width="2" d="M197,-206.5C170.51,-206.5 176.57,-180.43 161,-159 160.2,-157.9 159.66,-156.73 159.25,-155.57"/>
<polygon fill="black" stroke="black" stroke-width="2" points="161.89,-153.26 153,-147.5 156.36,-157.55 161.89,-153.26"/>
</g>
<!-- n0000001c -->
<g id="node5" class="node">
<title>n0000001c</title>
<polygon fill="yellow" stroke="black" points="475.5,-135.5 336.5,-135.5 336.5,-97.5 475.5,-97.5 475.5,-135.5"/>
<text text-anchor="middle" x="406" y="-120.3" font-family="Times,serif" font-size="14.00">mali&#45;c55 3a stats</text>
<text text-anchor="middle" x="406" y="-105.3" font-family="Times,serif" font-size="14.00">/dev/video3</text>
</g>
<!-- n00000003&#45;&gt;n0000001c -->
<g id="edge5" class="edge">
<title>n00000003:port3&#45;&gt;n0000001c</title>
<path fill="none" stroke="black" d="M337,-206.5C368.55,-206.5 387.74,-171.13 397.62,-144.99"/>
<polygon fill="black" stroke="black" points="400.94,-146.11 400.96,-135.51 394.33,-143.78 400.94,-146.11"/>
</g>
<!-- n00000010 -->
<g id="node6" class="node">
<title>n00000010</title>
<polygon fill="yellow" stroke="black" points="293,-38 195,-38 195,0 293,0 293,-38"/>
<text text-anchor="middle" x="244" y="-22.8" font-family="Times,serif" font-size="14.00">mali&#45;c55 fr</text>
<text text-anchor="middle" x="244" y="-7.8" font-family="Times,serif" font-size="14.00">/dev/video0</text>
</g>
<!-- n00000009&#45;&gt;n00000010 -->
<g id="edge6" class="edge">
<title>n00000009:port1&#45;&gt;n00000010</title>
<path fill="none" stroke="black" d="M244,-74C244,-65.79 244,-56.87 244,-48.69"/>
<polygon fill="black" stroke="black" points="247.5,-48.49 244,-38.49 240.5,-48.49 247.5,-48.49"/>
</g>
<!-- n00000014 -->
<g id="node7" class="node">
<title>n00000014</title>
<polygon fill="yellow" stroke="black" points="125,-38 27,-38 27,0 125,0 125,-38"/>
<text text-anchor="middle" x="76" y="-22.8" font-family="Times,serif" font-size="14.00">mali&#45;c55 ds</text>
<text text-anchor="middle" x="76" y="-7.8" font-family="Times,serif" font-size="14.00">/dev/video1</text>
</g>
<!-- n0000000d&#45;&gt;n00000014 -->
<g id="edge7" class="edge">
<title>n0000000d:port1&#45;&gt;n00000014</title>
<path fill="none" stroke="black" d="M76,-74C76,-65.79 76,-56.87 76,-48.69"/>
<polygon fill="black" stroke="black" points="79.5,-48.49 76,-38.49 72.5,-48.49 79.5,-48.49"/>
</g>
<!-- n00000018 -->
<g id="node8" class="node">
<title>n00000018</title>
<polygon fill="yellow" stroke="black" points="475.5,-377.5 318.5,-377.5 318.5,-339.5 475.5,-339.5 475.5,-377.5"/>
<text text-anchor="middle" x="397" y="-362.3" font-family="Times,serif" font-size="14.00">mali&#45;c55 3a params</text>
<text text-anchor="middle" x="397" y="-347.3" font-family="Times,serif" font-size="14.00">/dev/video2</text>
</g>
<!-- n00000018&#45;&gt;n00000003 -->
<g id="edge8" class="edge">
<title>n00000018&#45;&gt;n00000003:port4</title>
<path fill="none" stroke="black" d="M393.36,-339.49C387.61,-316.23 374.19,-277.78 347.14,-269.93"/>
<polygon fill="black" stroke="black" points="347.39,-266.43 337,-268.5 346.42,-273.36 347.39,-266.43"/>
</g>
<!-- n00000030 -->
<g id="node9" class="node">
<title>n00000030</title>
<path fill="green" stroke="black" d="M175.5,-316.5C175.5,-316.5 288.5,-316.5 288.5,-316.5 294.5,-316.5 300.5,-322.5 300.5,-328.5 300.5,-328.5 300.5,-388.5 300.5,-388.5 300.5,-394.5 294.5,-400.5 288.5,-400.5 288.5,-400.5 175.5,-400.5 175.5,-400.5 169.5,-400.5 163.5,-394.5 163.5,-388.5 163.5,-388.5 163.5,-328.5 163.5,-328.5 163.5,-322.5 169.5,-316.5 175.5,-316.5"/>
<text text-anchor="middle" x="232" y="-385.3" font-family="Times,serif" font-size="14.00">0</text>
<polyline fill="none" stroke="black" points="163.5,-377.5 300.5,-377.5 "/>
<text text-anchor="middle" x="232" y="-362.3" font-family="Times,serif" font-size="14.00">lte&#45;csi2&#45;rx</text>
<text text-anchor="middle" x="232" y="-347.3" font-family="Times,serif" font-size="14.00">/dev/v4l&#45;subdev4</text>
<polyline fill="none" stroke="black" points="163.5,-339.5 300.5,-339.5 "/>
<text text-anchor="middle" x="232" y="-324.3" font-family="Times,serif" font-size="14.00">1</text>
</g>
<!-- n00000030&#45;&gt;n00000003 -->
<g id="edge9" class="edge">
<title>n00000030:port1&#45;&gt;n00000003:port0</title>
<path fill="none" stroke="black" d="M232,-316C232,-304 232,-298.75 232,-290.12"/>
<polygon fill="black" stroke="black" points="235.5,-290 232,-280 228.5,-290 235.5,-290"/>
</g>
<!-- n00000035 -->
<g id="node10" class="node">
<title>n00000035</title>
<path fill="green" stroke="black" d="M175.5,-437.5C175.5,-437.5 288.5,-437.5 288.5,-437.5 294.5,-437.5 300.5,-443.5 300.5,-449.5 300.5,-449.5 300.5,-509.5 300.5,-509.5 300.5,-515.5 294.5,-521.5 288.5,-521.5 288.5,-521.5 175.5,-521.5 175.5,-521.5 169.5,-521.5 163.5,-515.5 163.5,-509.5 163.5,-509.5 163.5,-449.5 163.5,-449.5 163.5,-443.5 169.5,-437.5 175.5,-437.5"/>
<text text-anchor="middle" x="232" y="-506.3" font-family="Times,serif" font-size="14.00"> </text>
<polyline fill="none" stroke="black" points="163.5,-498.5 300.5,-498.5 "/>
<text text-anchor="middle" x="232" y="-483.3" font-family="Times,serif" font-size="14.00">imx415 1&#45;001a</text>
<text text-anchor="middle" x="232" y="-468.3" font-family="Times,serif" font-size="14.00">/dev/v4l&#45;subdev5</text>
<polyline fill="none" stroke="black" points="163.5,-460.5 300.5,-460.5 "/>
<text text-anchor="middle" x="232" y="-445.3" font-family="Times,serif" font-size="14.00">0</text>
</g>
<!-- n00000035&#45;&gt;n00000030 -->
<g id="edge10" class="edge">
<title>n00000035:port0&#45;&gt;n00000030:port0</title>
<path fill="none" stroke="black" stroke-width="2" d="M232,-437C232,-425 232,-419.75 232,-411.12"/>
<polygon fill="black" stroke="black" stroke-width="2" points="235.5,-411 232,-401 228.5,-411 235.5,-411"/>
</g>
</g>
</svg>
